<?xml version="1.0" encoding="UTF-8" standalone="no"?>
<svg
   width="100"
   height="100"
   viewBox="0 0 100 100"
   fill="none"
   version="1.1"
   id="svg1"
   sodipodi:docname="movie-icon.svg"
   inkscape:version="1.3 (0e150ed6c4, 2023-07-21)"
   xmlns:inkscape="http://www.inkscape.org/namespaces/inkscape"
   xmlns:sodipodi="http://sodipodi.sourceforge.net/DTD/sodipodi-0.dtd"
   xmlns="http://www.w3.org/2000/svg"
   xmlns:svg="http://www.w3.org/2000/svg">
  <sodipodi:namedview
     id="namedview1"
     pagecolor="#505050"
     bordercolor="#eeeeee"
     borderopacity="1"
     inkscape:showpageshadow="0"
     inkscape:pageopacity="0"
     inkscape:pagecheckerboard="0"
     inkscape:deskcolor="#505050"
     inkscape:zoom="7.06"
     inkscape:cx="50"
     inkscape:cy="49.929178"
     inkscape:window-width="1920"
     inkscape:window-height="991"
     inkscape:window-x="-9"
     inkscape:window-y="-9"
     inkscape:window-maximized="1"
     inkscape:current-layer="svg1" />
  <g
     clip-path="url(#clip0_8514_387)"
     id="g1"
     style="fill:#373737;fill-opacity:1">
    <path
       d="M49.9997 8.33337C73.0122 8.33337 91.6663 26.9875 91.6663 50C91.6716 56.2558 90.2657 62.4322 87.5531 68.0693C84.8406 73.7064 80.8915 78.659 75.9997 82.5584L75.0038 83.3334H83.333C84.395 83.3345 85.4165 83.7412 86.1887 84.4702C86.9609 85.1993 87.4256 86.1957 87.4879 87.2558C87.5501 88.316 87.2052 89.36 86.5236 90.1743C85.8419 90.9887 84.8751 91.5121 83.8205 91.6375L83.333 91.6667H49.9997C26.9872 91.6667 8.33301 73.0125 8.33301 50C8.33301 26.9875 26.9872 8.33337 49.9997 8.33337ZM49.9997 16.6667C41.1591 16.6667 32.6807 20.1786 26.4294 26.4298C20.1782 32.681 16.6663 41.1595 16.6663 50C16.6663 58.8406 20.1782 67.3191 26.4294 73.5703C32.6807 79.8215 41.1591 83.3334 49.9997 83.3334C58.8402 83.3334 67.3187 79.8215 73.5699 73.5703C79.8211 67.3191 83.333 58.8406 83.333 50C83.333 41.1595 79.8211 32.681 73.5699 26.4298C67.3187 20.1786 58.8402 16.6667 49.9997 16.6667ZM49.9997 58.3334C52.2098 58.3334 54.3294 59.2113 55.8922 60.7742C57.455 62.337 58.333 64.4566 58.333 66.6667C58.333 68.8768 57.455 70.9965 55.8922 72.5593C54.3294 74.1221 52.2098 75 49.9997 75C47.7895 75 45.6699 74.1221 44.1071 72.5593C42.5443 70.9965 41.6663 68.8768 41.6663 66.6667C41.6663 64.4566 42.5443 62.337 44.1071 60.7742C45.6699 59.2113 47.7895 58.3334 49.9997 58.3334ZM33.333 41.6667C35.5431 41.6667 37.6628 42.5447 39.2256 44.1075C40.7884 45.6703 41.6663 47.7899 41.6663 50C41.6663 52.2102 40.7884 54.3298 39.2256 55.8926C37.6628 57.4554 35.5431 58.3334 33.333 58.3334C31.1229 58.3334 29.0033 57.4554 27.4405 55.8926C25.8776 54.3298 24.9997 52.2102 24.9997 50C24.9997 47.7899 25.8776 45.6703 27.4405 44.1075C29.0033 42.5447 31.1229 41.6667 33.333 41.6667ZM66.6663 41.6667C68.8765 41.6667 70.9961 42.5447 72.5589 44.1075C74.1217 45.6703 74.9997 47.7899 74.9997 50C74.9997 52.2102 74.1217 54.3298 72.5589 55.8926C70.9961 57.4554 68.8765 58.3334 66.6663 58.3334C64.4562 58.3334 62.3366 57.4554 60.7738 55.8926C59.211 54.3298 58.333 52.2102 58.333 50C58.333 47.7899 59.211 45.6703 60.7738 44.1075C62.3366 42.5447 64.4562 41.6667 66.6663 41.6667ZM49.9997 25C52.2098 25 54.3294 25.878 55.8922 27.4408C57.455 29.0036 58.333 31.1232 58.333 33.3334C58.333 35.5435 57.455 37.6631 55.8922 39.2259C54.3294 40.7887 52.2098 41.6667 49.9997 41.6667C47.7895 41.6667 45.6699 40.7887 44.1071 39.2259C42.5443 37.6631 41.6663 35.5435 41.6663 33.3334C41.6663 31.1232 42.5443 29.0036 44.1071 27.4408C45.6699 25.878 47.7895 25 49.9997 25Z"
       fill="black"
       id="path1"
       style="fill:#373737;fill-opacity:1" />
  </g>
  <defs
     id="defs1">
    <clipPath
       id="clip0_8514_387">
      <rect
         width="100"
         height="100"
         fill="white"
         id="rect1" />
    </clipPath>
  </defs>
</svg>
